<svg width="72" height="50" viewBox="0 0 72 50" fill="none" xmlns="http://www.w3.org/2000/svg">
<path d="M54.5525 0.647949C57.4299 0.647949 59.9752 1.20129 62.1885 2.30796C64.5125 3.30396 66.3385 4.79796 67.6665 6.78995C68.8839 8.33929 69.8799 10.4973 70.6545 13.264C71.4292 16.0306 71.8165 19.1293 71.8165 22.56C71.8165 28.0933 70.3779 33.35 67.5005 38.33C64.6232 43.1993 60.1965 47.0173 54.2205 49.784L52.7265 46.796C55.6039 45.468 58.2045 43.5866 60.5285 41.152C62.8525 38.6066 64.4019 35.9506 65.1765 33.184C66.1725 30.0853 66.3385 27.042 65.6745 24.054C62.7972 27.4846 58.7579 29.2 53.5565 29.2C49.1299 29.2 45.5885 27.9826 42.9325 25.548C40.2765 23.0026 38.9485 19.4613 38.9485 14.924C38.9485 10.608 40.3872 7.17729 43.2645 4.63196C46.1419 1.97595 49.9045 0.647949 54.5525 0.647949ZM16.3725 0.647949C19.2499 0.647949 21.7952 1.20129 24.0085 2.30796C26.3325 3.30396 28.1585 4.79796 29.4865 6.78995C30.7039 8.33929 31.6999 10.4973 32.4745 13.264C33.2492 16.0306 33.6365 19.1293 33.6365 22.56C33.6365 28.0933 32.1979 33.35 29.3205 38.33C26.4432 43.1993 22.0165 47.0173 16.0405 49.784L14.5465 46.796C17.4239 45.468 20.0245 43.5866 22.3485 41.152C24.6725 38.6066 26.2219 35.9506 26.9965 33.184C27.9925 30.0853 28.1585 27.042 27.4945 24.054C24.6172 27.4846 20.5779 29.2 15.3765 29.2C10.9499 29.2 7.40855 27.9826 4.75255 25.548C2.09655 23.0026 0.768555 19.4613 0.768555 14.924C0.768555 10.608 2.20722 7.17729 5.08455 4.63196C7.96188 1.97595 11.7245 0.647949 16.3725 0.647949Z" fill="white"/>
</svg>
