<svg width="36" height="37" viewBox="0 0 36 37" fill="none" xmlns="http://www.w3.org/2000/svg">
<path d="M17.51 34.6606C20.8723 34.6606 24.1591 33.6636 26.9547 31.7956C29.7503 29.9276 31.9293 27.2726 33.216 24.1662C34.5027 21.0599 34.8393 17.6418 34.1834 14.3441C33.5274 11.0464 31.9083 8.01732 29.5308 5.63983C27.1533 3.26234 24.1242 1.64325 20.8265 0.987302C17.5289 0.331354 14.1107 0.66801 11.0044 1.9547C7.89805 3.24138 5.24301 5.42032 3.37503 8.21595C1.50704 11.0116 0.51001 14.2983 0.51001 17.6606C0.51001 22.1693 2.30108 26.4933 5.48919 29.6814C8.67731 32.8696 13.0013 34.6606 17.51 34.6606Z" fill="white"/>
<path d="M13.3999 14.7707H15.1599V13.0607C15.0796 12.1434 15.2783 11.2232 15.7299 10.4207C16.041 9.99546 16.4541 9.65531 16.9312 9.43162C17.4083 9.20793 17.934 9.1079 18.4599 9.14074C19.5199 9.09338 20.5811 9.20119 21.6099 9.46074L21.1699 12.0707C20.711 11.9385 20.2373 11.8646 19.7599 11.8507C19.0699 11.8507 18.4599 12.1007 18.4599 12.7807V14.7807H21.2599L21.0699 17.3207H18.4599V26.1407H15.1599V17.3107H13.3999V14.7707Z" fill="#0E5C63"/>
</svg>
