<svg width="36" height="37" viewBox="0 0 36 37" fill="none" xmlns="http://www.w3.org/2000/svg">
<g clip-path="url(#clip0_1_455)">
<path d="M17.51 34.6606C20.8723 34.6606 24.1591 33.6636 26.9547 31.7956C29.7503 29.9276 31.9293 27.2726 33.216 24.1662C34.5027 21.0599 34.8393 17.6418 34.1834 14.3441C33.5274 11.0464 31.9083 8.01732 29.5308 5.63983C27.1533 3.26234 24.1242 1.64325 20.8265 0.987302C17.5289 0.331354 14.1107 0.66801 11.0044 1.9547C7.89805 3.24138 5.24301 5.42032 3.37503 8.21595C1.50704 11.0116 0.51001 14.2983 0.51001 17.6606C0.51001 22.1693 2.30108 26.4933 5.48919 29.6814C8.67731 32.8696 13.0013 34.6606 17.51 34.6606Z" fill="white"/>
<path d="M22.73 9.14062H12.29C11.4174 9.14062 10.5806 9.48725 9.96362 10.1042C9.34662 10.7212 9 11.558 9 12.4306V22.8706C9.00131 23.3013 9.08745 23.7276 9.2535 24.125C9.41955 24.5225 9.66225 24.8833 9.96776 25.187C10.2733 25.4906 10.6356 25.7311 11.034 25.8948C11.4325 26.0584 11.8593 26.1419 12.29 26.1406H22.73C23.5964 26.138 24.4267 25.7926 25.0393 25.1799C25.652 24.5673 25.9974 23.737 26 22.8706V12.4306C26 11.5615 25.6561 10.7277 25.0435 10.1113C24.4308 9.49487 23.5991 9.14591 22.73 9.14062ZM23.67 11.1406H24.05V14.0306H21.17V11.1406H23.67ZM15.08 15.9406C15.496 15.359 16.1061 14.9452 16.8003 14.7736C17.4945 14.6021 18.2271 14.6841 18.8661 15.005C19.5052 15.3258 20.0086 15.8644 20.2856 16.5236C20.5627 17.1828 20.5952 17.9193 20.3773 18.6003C20.1593 19.2814 19.7053 19.8622 19.097 20.2381C18.4887 20.614 17.7662 20.7602 17.0596 20.6505C16.353 20.5407 15.7088 20.1822 15.2432 19.6395C14.7776 19.0968 14.5211 18.4057 14.52 17.6906C14.5106 17.0494 14.7068 16.4221 15.08 15.9006V15.9406ZM24.36 22.9406C24.3574 23.3712 24.1845 23.7832 23.8791 24.0867C23.5737 24.3903 23.1606 24.5606 22.73 24.5606H12.29C11.8594 24.5606 11.4463 24.3903 11.1409 24.0867C10.8355 23.7832 10.6626 23.3712 10.66 22.9406V15.9406H13.2C12.9141 16.6465 12.806 17.4118 12.8852 18.1693C12.9643 18.9267 13.2283 19.6531 13.6539 20.2847C14.0795 20.9162 14.6538 21.4336 15.3261 21.7913C15.9985 22.1489 16.7484 22.336 17.51 22.336C18.2716 22.336 19.0215 22.1489 19.6939 21.7913C20.3662 21.4336 20.9405 20.9162 21.3661 20.2847C21.7917 19.6531 22.0557 18.9267 22.1348 18.1693C22.214 17.4118 22.1059 16.6465 21.82 15.9406H24.36V22.9406Z" fill="#0E5C63"/>
</g>
<defs>
<clipPath id="clip0_1_455">
<rect width="36" height="36" fill="white" transform="translate(0 0.140625)"/>
</clipPath>
</defs>
</svg>
