<svg width="54" height="53" viewBox="0 0 54 53" fill="none" xmlns="http://www.w3.org/2000/svg">
<g clip-path="url(#clip0_1_157)">
<path d="M12.1549 46.1368C2.65933 40.6081 0.282977 26.6015 8.52625 14.2745C21.187 -4.64098 34.9028 3.39709 40.9669 5.37661C49.7131 8.22592 52.3359 15.5842 53.2135 22.5725C54.87 35.7293 49.3285 49.2161 36.9734 51.9954C23.376 55.0547 19.5699 50.4458 12.1549 46.1368Z" fill="#F2EBE4"/>
<path d="M14.3849 37.0218C14.0375 37.0226 13.6953 36.9377 13.3885 36.7747L12.0475 36.0614C11.5551 35.7982 11.1855 35.3526 11.0179 34.8202C10.8503 34.2877 10.898 33.7107 11.1508 33.213L12.1112 31.3689C12.1781 31.2418 12.2925 31.1462 12.4294 31.1029C12.5664 31.0597 12.7149 31.0722 12.8427 31.1379C12.9705 31.2035 13.0671 31.317 13.1117 31.4535C13.1563 31.5901 13.1451 31.7387 13.0807 31.8671L12.1292 33.7142C12.0057 33.9564 11.9822 34.2375 12.0636 34.4969C12.145 34.7564 12.3248 34.9736 12.5646 35.102L13.9046 35.8153C14.1452 35.9412 14.4252 35.9685 14.6856 35.8915C14.9459 35.8145 15.1661 35.6393 15.2995 35.4028L16.2719 33.6524C16.3067 33.5898 16.3535 33.5348 16.4096 33.4903C16.4657 33.4459 16.53 33.4129 16.5988 33.3933C16.6676 33.3737 16.7396 33.3678 16.8107 33.376C16.8818 33.3842 16.9506 33.4064 17.0132 33.4412C17.0757 33.476 17.1308 33.5228 17.1752 33.5788C17.2197 33.6349 17.2527 33.6992 17.2723 33.768C17.2919 33.8369 17.2978 33.9089 17.2896 33.98C17.2813 34.0511 17.2592 34.1199 17.2244 34.1824L16.252 35.9328C16.0662 36.2656 15.7949 36.5426 15.4661 36.7353C15.1373 36.928 14.763 37.0293 14.3819 37.0287L14.3849 37.0218Z" fill="#0E5C63"/>
<path d="M41.4889 37.0019C41.1085 37.0023 40.735 36.9009 40.407 36.7082C40.079 36.5155 39.8086 36.2385 39.6238 35.906L38.6644 34.1775C38.599 34.0516 38.5853 33.9051 38.6262 33.7693C38.6671 33.6334 38.7593 33.5188 38.8834 33.4499C39.0074 33.381 39.1535 33.3632 39.2904 33.4003C39.4274 33.4374 39.5445 33.5264 39.6169 33.6485L40.5763 35.377C40.7108 35.6175 40.9349 35.795 41.1998 35.8707C41.4647 35.9465 41.7488 35.9144 41.9901 35.7815L43.375 35.0144C43.4942 34.9488 43.5993 34.8602 43.6843 34.7539C43.7692 34.6475 43.8323 34.5254 43.8698 34.3946C43.9074 34.2638 43.9188 34.1268 43.9033 33.9916C43.8878 33.8564 43.8457 33.7256 43.7795 33.6067L42.82 31.8781C42.7546 31.7522 42.7409 31.6057 42.7818 31.4699C42.8227 31.334 42.915 31.2195 43.0391 31.1506C43.1631 31.0817 43.3091 31.0639 43.4461 31.1009C43.5831 31.138 43.7002 31.227 43.7725 31.3491L44.737 33.0786C44.8725 33.3227 44.9586 33.5912 44.9903 33.8686C45.0219 34.1461 44.9985 34.427 44.9214 34.6954C44.8443 34.9638 44.715 35.2143 44.541 35.4326C44.3669 35.651 44.1515 35.8328 43.907 35.9678L42.5221 36.7339C42.2078 36.9092 41.8538 37.0012 41.4939 37.0009L41.4889 37.0019Z" fill="#0E5C63"/>
<path d="M34.3384 10.593C34.204 10.5909 34.0751 10.5391 33.9767 10.4475L33.7386 10.2313C31.8732 8.54679 30.1064 6.75618 28.4471 4.86838C27.0137 6.5452 25.0447 7.675 22.8736 8.06641L21.678 8.2826C21.5359 8.30902 21.389 8.27789 21.2698 8.19605C21.1506 8.11422 21.0688 7.98838 21.0424 7.84623C21.016 7.70408 21.0471 7.55725 21.1289 7.43805C21.2108 7.31884 21.3366 7.23703 21.4788 7.21061L22.6744 6.99342C24.8011 6.61036 26.7013 5.42974 27.9868 3.69278C28.0355 3.6271 28.0984 3.57322 28.1707 3.53514C28.2431 3.49705 28.3231 3.47574 28.4048 3.47277C28.4865 3.4698 28.5679 3.48526 28.6428 3.518C28.7177 3.55074 28.7843 3.59992 28.8377 3.6619C30.591 5.69982 32.4704 7.62574 34.4649 9.4283L34.704 9.6445C34.7854 9.71841 34.8426 9.81523 34.868 9.92223C34.8934 10.0292 34.8858 10.1414 34.8462 10.244C34.8067 10.3466 34.737 10.4349 34.6463 10.4971C34.5557 10.5594 34.4483 10.5928 34.3384 10.593Z" fill="#0E5C63"/>
<path d="M27.9319 14.0201C25.3993 14.0201 23.3389 11.7068 23.3389 8.86341C23.3375 8.21897 23.4453 7.57895 23.6577 6.9705C23.7081 6.83761 23.8085 6.72968 23.9374 6.66973C24.0663 6.60978 24.2135 6.60257 24.3476 6.64961C24.4818 6.69666 24.5922 6.79426 24.6554 6.92158C24.7186 7.0489 24.7296 7.19587 24.6859 7.33115C24.5147 7.82246 24.4278 8.33916 24.4289 8.85943C24.4289 11.102 26.0001 12.9262 27.9319 12.9262C29.8638 12.9262 31.436 11.106 31.436 8.86341C31.4361 8.51109 31.3967 8.15987 31.3185 7.81633C31.2861 7.67524 31.3111 7.52706 31.388 7.4044C31.4649 7.28175 31.5873 7.19465 31.7285 7.16228C31.8696 7.12992 32.0177 7.15493 32.1404 7.23181C32.2631 7.30869 32.3502 7.43115 32.3825 7.57225C32.4798 7.99709 32.5286 8.43158 32.528 8.8674C32.528 11.7108 30.4666 14.0241 27.9339 14.0241L27.9319 14.0201Z" fill="#0E5C63"/>
<path d="M16.75 34.4576C16.6579 34.4575 16.5673 34.4338 16.487 34.3887L12.3313 32.0893C12.2683 32.0547 12.2128 32.008 12.168 31.9518C12.1232 31.8956 12.09 31.8311 12.0702 31.762C12.0505 31.6929 12.0446 31.6206 12.053 31.5492C12.0614 31.4778 12.0839 31.4088 12.1191 31.3461L19.5915 18.025C19.9839 17.3278 20.5547 16.7475 21.2455 16.3438C21.9362 15.94 22.722 15.7274 23.522 15.7276H25.0165V12.6033C25.0165 12.4588 25.074 12.3203 25.1762 12.2181C25.2784 12.1159 25.417 12.0583 25.5615 12.0583C25.7061 12.0583 25.8447 12.1159 25.9469 12.2181C26.0491 12.3203 26.1065 12.4588 26.1065 12.6033V16.2726C26.1065 16.4171 26.0491 16.5557 25.9469 16.6579C25.8447 16.7601 25.7061 16.8175 25.5615 16.8175H23.522C22.9155 16.8176 22.32 16.979 21.7965 17.2852C21.273 17.5914 20.8404 18.0314 20.543 18.56L13.3386 31.4039L16.5408 33.1744L21.7575 23.7605C21.8162 23.6551 21.9082 23.5721 22.019 23.5246C22.1299 23.4771 22.2534 23.4677 22.3702 23.4979C22.487 23.5281 22.5905 23.5961 22.6644 23.6915C22.7384 23.7868 22.7786 23.9039 22.7788 24.0245V30.3011H33.1007L33.1147 23.9847C33.1151 23.8641 33.1555 23.7472 33.2295 23.6521C33.3035 23.5569 33.407 23.4889 33.5237 23.459C33.6405 23.4289 33.7639 23.4383 33.8747 23.4858C33.9854 23.5334 34.0773 23.6164 34.1359 23.7218L39.3567 33.1763L42.5559 31.4059L35.3484 18.5611C35.0502 18.0334 34.6172 17.5944 34.0935 17.2892C33.5699 16.9839 32.9746 16.8231 32.3684 16.8235H30.2901C30.2185 16.8235 30.1477 16.8094 30.0815 16.782C30.0154 16.7546 29.9553 16.7146 29.9047 16.6639C29.8541 16.6133 29.814 16.5533 29.7866 16.4872C29.7592 16.4211 29.7451 16.3501 29.7451 16.2785V12.6093C29.7451 12.4648 29.8025 12.3261 29.9047 12.2239C30.0069 12.1217 30.1456 12.0643 30.2901 12.0643C30.4346 12.0643 30.5733 12.1217 30.6755 12.2239C30.7777 12.3261 30.8351 12.4648 30.8351 12.6093V15.7276H32.3645C33.1646 15.7277 33.9502 15.9408 34.6408 16.3449C35.3314 16.749 35.902 17.3295 36.294 18.0271L43.7664 31.3482C43.8016 31.4109 43.8241 31.4798 43.8325 31.5511C43.8409 31.6225 43.835 31.695 43.8153 31.764C43.7955 31.8331 43.7623 31.8976 43.7175 31.9538C43.6727 32.01 43.6172 32.0568 43.5542 32.0914L39.3985 34.3918C39.2721 34.461 39.1234 34.4775 38.9849 34.4375C38.8465 34.3976 38.7294 34.3045 38.6592 34.1786L34.1957 26.0889L34.1857 30.844C34.1855 30.9884 34.1279 31.1268 34.0258 31.2288C33.9236 31.3307 33.7851 31.3881 33.6407 31.3881H22.2308C22.1592 31.3881 22.0884 31.3739 22.0222 31.3465C21.9561 31.3192 21.896 31.2789 21.8454 31.2283C21.7948 31.1777 21.7547 31.1178 21.7273 31.0515C21.6999 30.9855 21.6858 30.9146 21.6858 30.8431V26.1327L17.2272 34.1796C17.1803 34.2647 17.1113 34.3358 17.0276 34.3852C16.9438 34.4347 16.8483 34.4606 16.751 34.4605L16.75 34.4576Z" fill="#0E5C63"/>
<path d="M31.0362 14.8639H30.2949C30.1504 14.8639 30.0118 14.8064 29.9096 14.7042C29.8074 14.602 29.7499 14.4634 29.7499 14.3189C29.7499 14.1744 29.8074 14.0357 29.9096 13.9335C30.0118 13.8314 30.1504 13.7739 30.2949 13.7739H31.0362C31.7667 13.7737 32.4672 13.4837 32.9842 12.9677C33.5012 12.4517 33.7924 11.7517 33.794 11.0212V6.48623C33.7918 5.39812 33.4126 4.34441 32.7208 3.50447C32.0291 2.66453 31.0676 2.09028 30 1.87948C29.9384 1.86706 29.8795 1.84414 29.8257 1.81173C29.055 1.34934 28.1754 1.09961 27.2767 1.08804C26.378 1.07646 25.4924 1.30344 24.71 1.74584C23.9277 2.18823 23.2767 2.8302 22.8235 3.60626C22.3702 4.38233 22.1309 5.26472 22.13 6.16344V11.0252C22.1316 11.7555 22.4227 12.4553 22.9395 12.9713C23.4562 13.4873 24.1566 13.7774 24.8869 13.7779H25.5634C25.7079 13.7779 25.8465 13.8353 25.9487 13.9375C26.0509 14.0397 26.1084 14.1783 26.1084 14.3229C26.1084 14.4674 26.0509 14.606 25.9487 14.7082C25.8465 14.8104 25.7079 14.8678 25.5634 14.8678H24.8869C23.8676 14.867 22.8902 14.4621 22.169 13.7417C21.4479 13.0214 21.0419 12.0445 21.04 11.0252V6.16344C21.041 5.07986 21.3274 4.01565 21.8703 3.07791C22.4133 2.14017 23.1937 1.36198 24.133 0.821663C25.0723 0.281342 26.1374 -0.00204883 27.221 1.11509e-05C28.3047 0.00207113 29.3686 0.289509 30.3059 0.833397C31.6009 1.11138 32.7618 1.82416 33.5955 2.85326C34.4293 3.88236 34.8857 5.16578 34.889 6.49021V11.0242C34.8869 12.0438 34.4805 13.021 33.7591 13.7415C33.0376 14.462 32.0598 14.867 31.0402 14.8678L31.0362 14.8639Z" fill="#0E5C63"/>
<path d="M27.9616 22.0898C26.7271 22.0893 25.5432 21.5991 24.6696 20.7269C23.7961 19.8547 23.3041 18.6716 23.3018 17.4372V16.3812C23.3018 16.2366 23.3592 16.098 23.4614 15.9958C23.5636 15.8936 23.7022 15.8362 23.8467 15.8362C23.9913 15.8362 24.1299 15.8936 24.2321 15.9958C24.3343 16.098 24.3917 16.2366 24.3917 16.3812V17.4372C24.3917 18.3839 24.7678 19.2919 25.4373 19.9613C26.1068 20.6308 27.0148 21.0068 27.9616 21.0068C28.9084 21.0068 29.8164 20.6308 30.4858 19.9613C31.1553 19.2919 31.5314 18.3839 31.5314 17.4372V16.3812C31.5314 16.2366 31.5888 16.098 31.691 15.9958C31.7933 15.8936 31.9319 15.8362 32.0764 15.8362C32.221 15.8362 32.3596 15.8936 32.4618 15.9958C32.564 16.098 32.6214 16.2366 32.6214 16.3812V17.4372C32.619 18.6716 32.1271 19.8547 31.2535 20.7269C30.38 21.5991 29.1961 22.0893 27.9616 22.0898Z" fill="#0E5C63"/>
<path d="M27.1945 35.0024H27.1537L16.227 34.1915C16.0873 34.1752 15.9592 34.1055 15.8697 33.997C15.7802 33.8885 15.7361 33.7496 15.7467 33.6093C15.7572 33.469 15.8216 33.3383 15.9263 33.2444C16.0311 33.1505 16.1681 33.1007 16.3087 33.1055L27.2354 33.9165C27.375 33.9284 27.5046 33.9936 27.5974 34.0985C27.6902 34.2034 27.739 34.34 27.7338 34.4799C27.7285 34.6199 27.6696 34.7525 27.5692 34.8501C27.4688 34.9478 27.3346 35.003 27.1945 35.0044V35.0024Z" fill="#0E5C63"/>
<path d="M21.3234 40.0964C21.1834 40.0947 21.0494 40.0393 20.9492 39.9416C20.8489 39.8438 20.7902 39.7113 20.785 39.5714C20.7799 39.4315 20.8288 39.295 20.9216 39.1902C21.0144 39.0854 21.144 39.0203 21.2835 39.0084L27.1619 38.5721C27.306 38.5612 27.4485 38.6081 27.5581 38.7024C27.6677 38.7966 27.7354 38.9305 27.7462 39.0747C27.757 39.2188 27.7102 39.3614 27.6159 39.4709C27.5216 39.5805 27.3877 39.6482 27.2436 39.659L21.3652 40.0944H21.3244L21.3234 40.0964Z" fill="#0E5C63"/>
<path d="M12.1571 38.5423C12.0486 38.5421 11.9426 38.5096 11.8526 38.4489C11.7626 38.3882 11.6928 38.3021 11.652 38.2015C11.4645 37.7387 11.3711 37.2432 11.3772 36.7439C11.3834 36.2446 11.489 35.7515 11.6878 35.2934C11.7129 35.223 11.7522 35.1584 11.8033 35.1038C11.8544 35.0492 11.9162 35.0057 11.9848 34.976C12.0535 34.9463 12.1275 34.9311 12.2022 34.9312C12.277 34.9313 12.351 34.9468 12.4195 34.9768C12.488 35.0067 12.5497 35.0505 12.6006 35.1053C12.6515 35.16 12.6905 35.2247 12.7154 35.2953C12.7402 35.3658 12.7502 35.4407 12.7449 35.5153C12.7395 35.5899 12.7188 35.6625 12.6842 35.7288C12.5432 36.0538 12.4684 36.4037 12.4642 36.7579C12.4599 37.1122 12.5262 37.4637 12.6593 37.7921C12.7135 37.9259 12.7126 38.0758 12.6565 38.209C12.6005 38.3421 12.494 38.4476 12.3604 38.5024C12.2951 38.5286 12.2254 38.5422 12.1551 38.5423H12.1571Z" fill="#0E5C63"/>
<path d="M40.7903 40.5467C40.7235 40.5467 40.6568 40.5467 40.591 40.5417L27.1585 39.6261C27.0206 39.6168 26.8914 39.5554 26.7971 39.4544C26.7028 39.3534 26.6503 39.2204 26.6504 39.0822V34.4904C26.6503 34.3522 26.7028 34.2191 26.7971 34.1181C26.8914 34.0171 27.0206 33.9557 27.1585 33.9464L39.5957 33.0986C39.7375 33.0928 39.8759 33.1425 39.9816 33.2372C40.0873 33.3319 40.1519 33.4641 40.1616 33.6057C40.1713 33.7473 40.1254 33.887 40.0337 33.9953C39.942 34.1036 39.8116 34.1718 39.6704 34.1855L27.7414 34.9985V38.5731L40.6578 39.4528C41.0923 39.4747 41.5256 39.39 41.9199 39.2063C42.3143 39.0225 42.6577 38.7452 42.9205 38.3985C43.1832 38.0517 43.3572 37.646 43.4273 37.2166C43.4975 36.7873 43.4616 36.3473 43.3229 35.9349C43.2568 35.8877 43.2023 35.826 43.1635 35.7546C43.1289 35.6919 43.107 35.623 43.0991 35.5518C43.0911 35.4806 43.0974 35.4086 43.1174 35.3398C43.1374 35.271 43.1707 35.2069 43.2156 35.151C43.2604 35.0952 43.3159 35.0488 43.3787 35.0144L43.3977 35.0024L43.4256 34.9845C43.4911 34.9433 43.5648 34.9165 43.6416 34.9061C43.7183 34.8956 43.7964 34.9017 43.8707 34.9238C43.9449 34.946 44.0136 34.9838 44.072 35.0346C44.1305 35.0854 44.1774 35.1482 44.2097 35.2186C44.4717 35.7915 44.5857 36.421 44.5412 37.0494C44.4968 37.6778 44.2952 38.285 43.9551 38.8152C43.615 39.3455 43.1472 39.7819 42.5946 40.0844C42.042 40.3869 41.4223 40.5459 40.7923 40.5467H40.7903Z" fill="#0E5C63"/>
<path d="M21.6123 34.588C21.5788 34.5878 21.5455 34.5845 21.5126 34.578C21.3707 34.5505 21.2456 34.4678 21.1647 34.3481C21.0838 34.2283 21.0538 34.0813 21.0812 33.9394L21.7009 30.7384C21.725 30.6142 21.7916 30.5022 21.8892 30.4216C21.9868 30.3411 22.1094 30.2971 22.236 30.2971H33.6031C33.7296 30.2971 33.8522 30.3411 33.9499 30.4216C34.0475 30.5022 34.114 30.6142 34.1381 30.7384L34.7508 33.9075C34.7644 33.978 34.764 34.0504 34.7497 34.1207C34.7353 34.191 34.7072 34.2578 34.667 34.3172C34.6268 34.3767 34.5753 34.4276 34.5154 34.4672C34.4555 34.5067 34.3884 34.534 34.3179 34.5476C34.2475 34.5612 34.175 34.5608 34.1047 34.5465C34.0344 34.5321 33.9676 34.504 33.9082 34.4638C33.8488 34.4236 33.7978 34.3721 33.7583 34.3122C33.7188 34.2523 33.6914 34.1852 33.6778 34.1148L33.1497 31.387H22.6803L22.1463 34.1456C22.1227 34.27 22.0564 34.3822 21.9589 34.4629C21.8614 34.5437 21.7388 34.5879 21.6123 34.588Z" fill="#0E5C63"/>
<path d="M50.9549 47.4648H25.6402C25.4957 47.4648 25.357 47.4074 25.2548 47.3052C25.1526 47.203 25.0952 47.0644 25.0952 46.9199C25.0952 46.7754 25.1526 46.6367 25.2548 46.5345C25.357 46.4323 25.4957 46.3749 25.6402 46.3749H50.1708L47.3024 38.6578H43.7156C43.571 38.6578 43.4324 38.6004 43.3302 38.4982C43.228 38.396 43.1706 38.2574 43.1706 38.1129C43.1706 37.9683 43.228 37.8297 43.3302 37.7275C43.4324 37.6253 43.571 37.5679 43.7156 37.5679H47.679C47.7903 37.5679 47.8989 37.602 47.9903 37.6656C48.0817 37.7291 48.1514 37.8192 48.1901 37.9236L51.463 46.7296C51.4937 46.812 51.504 46.9006 51.4931 46.9878C51.4821 47.075 51.4502 47.1583 51.4001 47.2305C51.35 47.3028 51.2831 47.3618 51.2053 47.4026C51.1274 47.4434 51.0408 47.4648 50.9529 47.4648H50.9549Z" fill="#0E5C63"/>
<path d="M23.7004 46.58C23.7594 46.7068 23.7794 46.8483 23.758 46.9865C23.7366 47.1247 23.6747 47.2535 23.5802 47.3565C23.4856 47.4596 23.3626 47.5323 23.2267 47.5654C23.0908 47.5986 22.9482 47.5908 22.8168 47.5429C22.6853 47.495 22.5711 47.4092 22.4884 47.2964C22.4057 47.1836 22.3583 47.0488 22.3522 46.9091C22.3461 46.7693 22.3816 46.6309 22.4542 46.5114C22.5267 46.3918 22.6331 46.2964 22.7598 46.2373C22.8441 46.198 22.9353 46.1756 23.0281 46.1716C23.121 46.1675 23.2138 46.1818 23.3012 46.2137C23.3885 46.2455 23.4687 46.2942 23.5372 46.3571C23.6057 46.4199 23.6612 46.4957 23.7004 46.58Z" fill="#0E5C63"/>
<path d="M19.492 50.9866H3.13228C3.00281 50.9874 2.8773 50.9419 2.77832 50.8585C2.67934 50.775 2.61337 50.659 2.59227 50.5313L0.507949 38.0829C0.494431 38.0047 0.498188 37.9245 0.518957 37.8479C0.539726 37.7713 0.577003 37.7002 0.628174 37.6395C0.679345 37.5789 0.74317 37.5301 0.815171 37.4968C0.887172 37.4634 0.965606 37.4461 1.04497 37.4463H21.5803C21.6594 37.4462 21.7377 37.4634 21.8095 37.4966C21.8813 37.5299 21.945 37.5785 21.9962 37.6389C22.0473 37.6993 22.0847 37.7702 22.1056 37.8465C22.1265 37.9229 22.1305 38.0029 22.1173 38.0809L20.028 50.5313C20.0068 50.6584 19.9412 50.7739 19.8429 50.8573C19.7446 50.9406 19.6199 50.9865 19.491 50.9866H19.492ZM3.59358 49.8997H19.0317L20.9366 38.5422H1.6886L3.59358 49.8997Z" fill="#0E5C63"/>
<path d="M12.5405 44.8187H10.0845C9.94 44.8187 9.80138 44.7613 9.69917 44.6591C9.59697 44.5569 9.53955 44.4183 9.53955 44.2737C9.53955 44.1292 9.59697 43.9906 9.69917 43.8884C9.80138 43.7862 9.94 43.7288 10.0845 43.7288H12.5405C12.685 43.7288 12.8236 43.7862 12.9259 43.8884C13.0281 43.9906 13.0855 44.1292 13.0855 44.2737C13.0855 44.4183 13.0281 44.5569 12.9259 44.6591C12.8236 44.7613 12.685 44.8187 12.5405 44.8187Z" fill="#0E5C63"/>
</g>
<defs>
<clipPath id="clip0_1_157">
<rect width="53" height="53" fill="white" transform="translate(0.5)"/>
</clipPath>
</defs>
</svg>
