<svg width="10" height="10" viewBox="0 0 10 10" fill="none" xmlns="http://www.w3.org/2000/svg">
<g clip-path="url(#clip0_1_495)">
<path d="M8.95137 0.180286H6.23518C5.99846 0.180286 5.8066 0.372144 5.8066 0.608858C5.8066 0.845572 5.99846 1.03743 6.23518 1.03743H7.9167L3.80718 5.14695C3.6398 5.31433 3.6398 5.58567 3.80718 5.75305C3.89089 5.83672 4.00056 5.87857 4.11022 5.87857C4.21989 5.87857 4.32956 5.83672 4.41327 5.75305L8.5228 1.64352V3.3251C8.5228 3.56181 8.71465 3.75367 8.95137 3.75367C9.18808 3.75367 9.37994 3.56181 9.37994 3.3251V0.608905C9.37994 0.372144 9.18808 0.180286 8.95137 0.180286Z" fill="#555547"/>
<path d="M7.19802 3.75362C6.96131 3.75362 6.76945 3.94548 6.76945 4.18219V8.39438H0.959926V2.58486H5.42555C5.66226 2.58486 5.85412 2.393 5.85412 2.15629C5.85412 1.91957 5.66226 1.72771 5.42555 1.72771H0.531355C0.29464 1.72771 0.102783 1.91957 0.102783 2.15629V8.82295C0.102783 9.05967 0.29464 9.25152 0.531355 9.25152H7.19802C7.43474 9.25152 7.62659 9.05967 7.62659 8.82295V4.18219C7.62659 3.94548 7.43474 3.75362 7.19802 3.75362Z" fill="#555547"/>
</g>
<defs>
<clipPath id="clip0_1_495">
<rect width="9.28571" height="9.28571" fill="white" transform="translate(0.102783 0.0773811)"/>
</clipPath>
</defs>
</svg>
