<svg width="57" height="57" viewBox="0 0 57 57" fill="none" xmlns="http://www.w3.org/2000/svg">
<g clip-path="url(#clip0_1_247)">
<path d="M11.9049 46.6502C2.40933 41.1216 0.0329766 27.1149 8.27625 14.7879C20.937 -4.12755 34.6528 3.91051 40.7169 5.89004C49.4631 8.73935 52.0859 16.0976 52.9635 23.0859C54.62 36.2427 49.0785 49.7295 36.7234 52.5088C23.126 55.5681 19.3199 50.9592 11.9049 46.6502Z" fill="#F2EBE4"/>
<path d="M37.8289 2.5H17.4605C15.0394 2.5 13.092 4.44737 13.092 6.86842V49.8158C13.092 52.2368 15.0394 54.1842 17.4605 54.1842H37.8289C40.2499 54.1842 42.1973 52.2368 42.1973 49.8158V6.86842C42.1447 4.44737 40.1973 2.5 37.8289 2.5ZM17.4605 4.18421H37.8289C39.3026 4.18421 40.5131 5.39474 40.5131 6.86842V9.28947H14.7236V6.86842C14.7236 5.39474 15.9341 4.18421 17.4605 4.18421ZM40.5131 10.9737V45.1842H14.7236V10.9737H40.5131ZM37.8289 52.5526H17.4605C15.9868 52.5526 14.7763 51.3421 14.7763 49.8684V46.8684H40.5657V49.8684C40.5131 51.2895 39.3026 52.5526 37.8289 52.5526Z" fill="#0E5C63"/>
<path d="M27.6184 51.3414C28.5777 51.3414 29.3553 50.5638 29.3553 49.6045C29.3553 48.6453 28.5777 47.8677 27.6184 47.8677C26.6592 47.8677 25.8816 48.6453 25.8816 49.6045C25.8816 50.5638 26.6592 51.3414 27.6184 51.3414Z" fill="#0E5C63"/>
<path d="M27.5657 51.3414C28.5249 51.3414 29.3025 50.5638 29.3025 49.6045C29.3025 48.6453 28.5249 47.8677 27.5657 47.8677C26.6065 47.8677 25.8289 48.6453 25.8289 49.6045C25.8289 50.5638 26.6065 51.3414 27.5657 51.3414Z" fill="#0E5C63"/>
<path d="M24.4078 6.23633C24.0394 6.23633 23.7236 6.55212 23.7236 6.92054C23.7236 7.28896 24.0394 7.60475 24.4078 7.60475H30.671C31.0394 7.60475 31.3552 7.28896 31.3552 6.92054C31.3552 6.49949 31.0394 6.23633 30.671 6.23633H24.4078Z" fill="#0E5C63"/>
<path d="M52.7236 17.2894H51.9341V16.4999C51.9341 16.2368 51.7236 15.9736 51.4078 15.9736C51.1446 15.9736 50.8815 16.1842 50.8815 16.4999V17.2894H50.092C49.8288 17.2894 49.5657 17.4999 49.5657 17.8157C49.5657 18.0789 49.7762 18.3421 50.092 18.3421H50.8815V19.1315C50.8815 19.3947 51.092 19.6578 51.4078 19.6578C51.6709 19.6578 51.9341 19.4473 51.9341 19.1315V18.3421H52.7236C52.9867 18.3421 53.2499 18.1315 53.2499 17.8157C53.1973 17.4999 52.9867 17.2894 52.7236 17.2894Z" fill="#0E5C63"/>
<path d="M9.88163 37.6576H9.09216V36.8681C9.09216 36.605 8.88163 36.3418 8.56584 36.3418C8.30268 36.3418 8.03952 36.5523 8.03952 36.8681V37.6576H7.30268C7.03953 37.6576 6.77637 37.8681 6.77637 38.1839C6.77637 38.4997 6.98689 38.7102 7.30268 38.7102H8.09216V39.4997C8.09216 39.7628 8.30268 40.026 8.61847 40.026C8.88163 40.026 9.14479 39.8155 9.14479 39.4997V38.7102H9.93426C10.1974 38.7102 10.4606 38.4997 10.4606 38.1839C10.4606 37.8681 10.1974 37.6576 9.88163 37.6576Z" fill="#0E5C63"/>
<path d="M8.82902 11.9735H7.51324V10.6577C7.51324 10.2893 7.19745 9.9209 6.77639 9.9209C6.40797 9.9209 6.03955 10.2367 6.03955 10.6577V11.9735H4.77639C4.40797 11.9735 4.03955 12.2893 4.03955 12.7104C4.03955 13.0788 4.35534 13.4472 4.77639 13.4472H6.09218V14.763C6.09218 15.1314 6.40797 15.4998 6.82902 15.4998C7.19745 15.4998 7.56587 15.1841 7.56587 14.763V13.4472H8.88166C9.25008 13.4472 9.6185 13.1314 9.6185 12.7104C9.56587 12.2893 9.25008 11.9735 8.82902 11.9735Z" fill="#0E5C63"/>
<path d="M4.19737 27.4475C4.72059 27.4475 5.14474 27.0233 5.14474 26.5001C5.14474 25.9769 4.72059 25.5527 4.19737 25.5527C3.67415 25.5527 3.25 25.9769 3.25 26.5001C3.25 27.0233 3.67415 27.4475 4.19737 27.4475Z" fill="#0E5C63"/>
<path d="M47.9342 46.9738C48.4574 46.9738 48.8816 46.5497 48.8816 46.0265C48.8816 45.5033 48.4574 45.0791 47.9342 45.0791C47.411 45.0791 46.9868 45.5033 46.9868 46.0265C46.9868 46.5497 47.411 46.9738 47.9342 46.9738Z" fill="#0E5C63"/>
<path d="M47.1447 11.6058C47.7842 11.6058 48.3026 11.0874 48.3026 10.4479C48.3026 9.80845 47.7842 9.29004 47.1447 9.29004C46.5052 9.29004 45.9868 9.80845 45.9868 10.4479C45.9868 11.0874 46.5052 11.6058 47.1447 11.6058Z" fill="#0E5C63"/>
<path fill-rule="evenodd" clip-rule="evenodd" d="M26.7287 34.8533C26.676 35.2316 25.5316 34.5124 24.1895 34.1496C23.6196 33.9954 23.0606 34.0225 22.6833 34.0225C22.0315 34.0225 21.109 34.2819 20.7314 34.5757C20.3542 34.869 20.1658 35.2043 20.1658 35.5816C20.1658 35.9903 20.363 36.3258 20.7573 36.5876C21.1517 36.8498 22.0492 36.9808 22.7351 36.9808C23.0781 36.9808 23.4294 36.9387 23.7898 36.8551C24.1668 36.7605 24.5266 36.6454 24.8696 36.5092C25.2127 36.3623 25.5384 36.2106 25.8473 36.0531C26.173 35.896 26.4559 35.744 26.6956 35.5975L27.5394 35.105C27.9065 34.9089 28.2653 34.7076 28.6151 34.5009C28.9823 34.2834 29.358 34.0872 29.7433 33.9131C30.1279 33.7284 30.5386 33.576 30.9761 33.456C31.4132 33.3365 31.8944 33.2769 32.4187 33.2769C32.9435 33.2769 33.4158 33.3365 33.8354 33.456C34.2726 33.5649 34.6489 33.7228 34.9635 33.9297C35.2785 34.1254 35.5144 34.3596 35.6721 34.6314C35.8469 34.9035 35.9341 35.2028 35.9341 35.5292C35.9341 35.8558 35.8555 36.1606 35.698 36.4435C35.5407 36.7155 35.3135 36.955 35.016 37.1616C34.719 37.3683 34.3514 37.5318 33.9144 37.6513C33.4945 37.7602 33.0136 37.8148 32.4711 37.8148C31.9817 37.8148 31.5092 37.7657 31.0546 37.6677C30.5999 37.5589 30.1716 37.4229 29.7692 37.2596C29.3668 37.0963 28.106 36.7077 28.3023 36.3843C28.4635 36.1542 28.6384 36.333 29.0611 36.4939C29.4056 36.6249 30.9785 37.2116 32.2167 37.0483C32.8493 36.9649 33.753 36.8498 34.1473 36.5876C34.5416 36.3258 34.7388 35.9903 34.7388 35.5816C34.7388 35.2043 34.5504 34.869 34.1732 34.5757C33.7957 34.2819 32.9242 34.1354 32.2723 34.1354C31.8951 34.1354 31.5265 34.1876 31.1663 34.2924C30.7892 34.3972 30.4293 34.5282 30.0865 34.6856C29.7434 34.8321 29.4176 34.9895 29.1089 35.1572C28.783 35.325 28.4891 35.537 28.2149 35.663L27.1104 36.3302L26.4111 36.7046C26.0439 36.9005 25.6594 37.0799 25.257 37.2434C24.8723 37.4065 24.4612 37.5425 24.0239 37.6513C23.5865 37.7602 23.1058 37.8148 22.581 37.8148C22.0567 37.8148 21.5753 37.7602 21.1383 37.6513C20.7184 37.5318 20.3514 37.3738 20.0362 37.178C19.7388 36.9714 19.503 36.7317 19.3282 36.4597C19.1709 36.1878 19.092 35.8938 19.092 35.5783C19.092 35.2737 19.1709 34.9851 19.3282 34.7131C19.503 34.4303 19.7388 34.1854 20.0362 33.9786C20.3337 33.761 20.6925 33.5924 21.1118 33.4726C21.5317 33.3527 22.0038 33.2929 22.5285 33.2929C23.0358 33.2929 23.517 33.3527 23.9716 33.4726C24.4263 33.5815 24.9848 33.7523 25.3871 33.9372C25.8067 34.1114 26.8547 34.4935 26.7287 34.8533Z" fill="#0E5C63"/>
<path fill-rule="evenodd" clip-rule="evenodd" d="M27.6893 18.0356C28.7858 18.0356 29.6748 19.3051 29.6748 20.8711C29.6748 22.4371 28.7858 23.7065 27.6893 23.7065C26.5928 23.7065 25.7039 22.4371 25.7039 20.8711C25.7039 19.3051 26.5928 18.0356 27.6893 18.0356ZM27.6992 19.2052C27.0762 19.2052 26.5711 20.111 26.5711 21.0005C26.5711 21.8903 27.0762 22.796 27.6992 22.796C28.322 22.796 28.8272 21.8903 28.8272 21.0005C28.8272 20.111 28.322 19.2052 27.6992 19.2052Z" fill="#0E5C63"/>
<path fill-rule="evenodd" clip-rule="evenodd" d="M28.8799 27.0133C32.5148 19.9097 35.7116 18.5269 35.3402 17.973C34.4839 16.6962 29.2031 23.4767 27.9236 26.7577C26.6256 30.0853 25.7942 31.88 25.7211 32.55C25.7036 32.7094 25.9492 32.8292 26.0379 32.733C26.8544 31.726 28.0356 28.6634 28.8799 27.0133Z" fill="#0E5C63"/>
<path fill-rule="evenodd" clip-rule="evenodd" d="M26.3106 27.0133C22.6758 19.9097 19.4789 18.5269 19.8505 17.973C20.7068 16.6962 25.9874 23.4767 27.2671 26.7577C28.5651 30.0853 29.3965 31.88 29.4696 32.55C29.4871 32.7094 29.2415 32.8292 29.1527 32.733C28.3361 31.726 27.1551 28.6634 26.3106 27.0133Z" fill="#0E5C63"/>
</g>
<defs>
<clipPath id="clip0_1_247">
<rect width="56" height="56" fill="white" transform="translate(0.25 0.5)"/>
</clipPath>
</defs>
</svg>
