<svg width="36" height="37" viewBox="0 0 36 37" fill="none" xmlns="http://www.w3.org/2000/svg">
<g clip-path="url(#clip0_1_459)">
<path d="M17.51 34.6606C20.8723 34.6606 24.1591 33.6636 26.9547 31.7956C29.7503 29.9276 31.9293 27.2726 33.216 24.1662C34.5027 21.0599 34.8393 17.6418 34.1834 14.3441C33.5274 11.0464 31.9083 8.01732 29.5308 5.63983C27.1533 3.26234 24.1242 1.64325 20.8265 0.987302C17.5289 0.331354 14.1107 0.66801 11.0044 1.9547C7.89805 3.24138 5.24301 5.42032 3.37503 8.21595C1.50704 11.0116 0.51001 14.2983 0.51001 17.6606C0.51001 22.1693 2.30108 26.4933 5.48919 29.6814C8.67731 32.8696 13.0013 34.6606 17.51 34.6606Z" fill="white"/>
<path d="M17.5101 9.14059C15.5727 9.15888 13.6998 9.83846 12.2015 11.0667C10.7031 12.2951 9.66943 13.9984 9.27153 15.8945C8.87363 17.7907 9.13544 19.7658 10.0136 21.4928C10.8917 23.2198 12.3335 24.595 14.1001 25.3906C14.0588 24.7372 14.1059 24.0813 14.2401 23.4406C14.4101 22.7506 15.3401 18.8106 15.3401 18.8106C15.157 18.3843 15.0651 17.9245 15.0701 17.4606C15.0701 16.2006 15.8001 15.2606 16.7101 15.2606C16.8724 15.2593 17.033 15.2928 17.1813 15.3586C17.3296 15.4244 17.4621 15.5212 17.57 15.6423C17.678 15.7635 17.7588 15.9063 17.8071 16.0612C17.8554 16.2161 17.87 16.3795 17.8501 16.5406C17.6879 17.5605 17.4369 18.5643 17.1001 19.5406C17.0478 19.7403 17.0434 19.9496 17.0873 20.1513C17.1313 20.3531 17.2223 20.5416 17.3529 20.7015C17.4835 20.8613 17.6501 20.9881 17.8391 21.0713C18.028 21.1546 18.2339 21.192 18.4401 21.1806C20.0601 21.1806 21.1401 19.1106 21.1401 16.6606C21.1401 14.8006 19.8801 13.4006 17.6001 13.4006C17.0539 13.3759 16.5085 13.4634 15.9975 13.6578C15.4864 13.8521 15.0207 14.1492 14.6289 14.5306C14.2372 14.912 13.9279 15.3697 13.7199 15.8753C13.512 16.381 13.41 16.9239 13.4201 17.4706C13.3959 18.0805 13.6031 18.677 14.0001 19.1406C14.0659 19.1993 14.1126 19.2765 14.134 19.3621C14.1554 19.4477 14.1505 19.5377 14.1201 19.6206L13.9401 20.3006C13.9326 20.3458 13.9146 20.3886 13.8874 20.4254C13.8602 20.4623 13.8246 20.4922 13.7837 20.5127C13.7427 20.5332 13.6974 20.5437 13.6516 20.5433C13.6058 20.5429 13.5607 20.5317 13.5201 20.5106C12.9369 20.2066 12.4589 19.7339 12.1485 19.1541C11.8381 18.5743 11.7097 17.9144 11.7801 17.2606C11.7801 14.8506 13.7801 11.9506 17.8501 11.9506C18.5252 11.9101 19.2016 12.0046 19.8397 12.2285C20.4779 12.4525 21.065 12.8013 21.5669 13.2547C22.0687 13.7081 22.4751 14.257 22.7624 14.8692C23.0497 15.4815 23.2121 16.1448 23.2401 16.8206C23.2401 20.1606 21.3801 22.6506 18.6501 22.6506C18.2427 22.66 17.8394 22.568 17.4764 22.383C17.1133 22.198 16.8019 21.9257 16.5701 21.5906C16.5701 21.5906 16.0801 23.5906 15.9701 23.9306C15.7725 24.5737 15.4864 25.1862 15.1201 25.7506C15.903 25.98 16.7143 26.0979 17.5301 26.1006C19.7131 25.9946 21.7717 25.0529 23.2792 23.4704C24.7868 21.888 25.6277 19.7862 25.6277 17.6006C25.6277 15.415 24.7868 13.3132 23.2792 11.7307C21.7717 10.1483 19.7131 9.20651 17.5301 9.10059" fill="#0E5C63"/>
</g>
<defs>
<clipPath id="clip0_1_459">
<rect width="36" height="36" fill="white" transform="translate(0 0.140625)"/>
</clipPath>
</defs>
</svg>
