<svg width="20" height="20" viewBox="0 0 20 20" fill="none" xmlns="http://www.w3.org/2000/svg">
<g clip-path="url(#clip0_1_501)">
<path fill-rule="evenodd" clip-rule="evenodd" d="M13.7574 13.1926C15.3942 11.2468 15.9036 8.47289 14.8411 5.97273C13.3351 2.42914 9.24149 0.777376 5.69776 2.28342C2.15403 3.78947 0.502114 7.88302 2.00811 11.4266C3.5141 14.9702 7.6077 16.6219 11.1514 15.116C11.8079 14.8369 12.3994 14.4692 12.9179 14.0325L17.461 18.5761C17.6929 18.808 18.0689 18.808 18.3008 18.5761C18.5327 18.3443 18.5327 17.9684 18.3008 17.7365L13.7574 13.1926ZM12.5489 12.7572C14.1411 11.1376 14.6917 8.65735 13.7481 6.43723C12.4986 3.49725 9.10236 2.12685 6.16224 3.37636C3.22215 4.62587 1.85162 8.02212 3.10108 10.9621C4.35055 13.9021 7.74685 15.2725 10.687 14.023C11.3761 13.7301 11.979 13.3193 12.4821 12.8241C12.4923 12.8121 12.5031 12.8005 12.5144 12.7892C12.5255 12.778 12.5371 12.7674 12.5489 12.7572Z" fill="#555547"/>
</g>
<defs>
<clipPath id="clip0_1_501">
<rect width="18.5714" height="18.5714" fill="white" transform="translate(0.677246 0.952377)"/>
</clipPath>
</defs>
</svg>
