<svg width="16" height="16" viewBox="0 0 16 16" fill="none" xmlns="http://www.w3.org/2000/svg">
<g clip-path="url(#clip0_1_74)">
<path fill-rule="evenodd" clip-rule="evenodd" d="M8 0C3.58172 0 0 3.58172 0 8C0 12.4183 3.58172 16 8 16C12.4183 16 16 12.4183 16 8C16 3.58172 12.4183 0 8 0ZM7.99974 1.06667C11.8289 1.06667 14.9331 4.17083 14.9331 8C14.9331 11.8292 11.8289 14.9333 7.99974 14.9333C4.17057 14.9333 1.06641 11.8292 1.06641 8C1.06641 4.17083 4.17057 1.06667 7.99974 1.06667ZM8.00013 4.8C8.27014 4.8 8.49328 5.00064 8.5286 5.26096L8.53347 5.33333V7.77912L11.7103 10.9566C11.9185 11.1649 11.9185 11.5026 11.7102 11.7108C11.5208 11.9002 11.2245 11.9174 11.0158 11.7624L10.9559 11.7108L7.62452 8.37863C7.61936 8.37351 7.6143 8.36829 7.60935 8.36296C7.53638 8.28443 7.48679 8.18388 7.47167 8.07237C7.46845 8.04854 7.4668 8.02401 7.4668 8V5.33333C7.4668 5.03878 7.70558 4.8 8.00013 4.8Z" fill="#555547"/>
</g>
<defs>
<clipPath id="clip0_1_74">
<rect width="16" height="16" fill="white"/>
</clipPath>
</defs>
</svg>
