<svg width="36" height="37" viewBox="0 0 36 37" fill="none" xmlns="http://www.w3.org/2000/svg">
<g clip-path="url(#clip0_1_463)">
<path d="M17.51 34.6606C20.8723 34.6606 24.1591 33.6636 26.9547 31.7956C29.7503 29.9276 31.9293 27.2726 33.216 24.1662C34.5027 21.0599 34.8393 17.6418 34.1834 14.3441C33.5274 11.0464 31.9083 8.01732 29.5308 5.63983C27.1533 3.26234 24.1242 1.64325 20.8265 0.987302C17.5289 0.331354 14.1107 0.66801 11.0044 1.9547C7.89805 3.24138 5.24301 5.42032 3.37503 8.21595C1.50704 11.0116 0.51001 14.2983 0.51001 17.6606C0.51001 22.1693 2.30108 26.4933 5.48919 29.6814C8.67731 32.8696 13.0013 34.6606 17.51 34.6606Z" fill="white"/>
<path d="M22.1701 8.94064V13.2906C22.0734 13.4146 21.9548 13.5197 21.8201 13.6006C21.7222 13.6701 21.609 13.7147 21.4901 13.7306C21.4475 13.7335 21.4048 13.7269 21.365 13.7113C21.3253 13.6958 21.2894 13.6716 21.2601 13.6406C21.1934 13.5555 21.1613 13.4484 21.1701 13.3406V8.94064H20.0001V13.7306C19.9802 14.0037 20.0543 14.2754 20.2101 14.5006C20.2855 14.5866 20.3799 14.6539 20.4857 14.6973C20.5915 14.7407 20.706 14.7589 20.8201 14.7506C21.0598 14.7454 21.2954 14.6873 21.5101 14.5806C21.7595 14.4399 21.9828 14.2572 22.1701 14.0406V14.6706H23.3501V8.94064H22.1701ZM18.6001 9.22064C18.2705 8.92885 17.8397 8.77804 17.4001 8.80064C16.9424 8.77642 16.4913 8.91848 16.1301 9.20064C15.9756 9.32941 15.8529 9.49199 15.7714 9.67581C15.6899 9.85962 15.6518 10.0597 15.6601 10.2606V13.2606C15.6497 13.4756 15.6853 13.6903 15.7646 13.8904C15.844 14.0904 15.9652 14.2712 16.1201 14.4206C16.4568 14.7224 16.8983 14.8803 17.3501 14.8606C17.8071 14.8873 18.2562 14.7328 18.6001 14.4306C18.7575 14.2852 18.8805 14.1066 18.96 13.9076C19.0396 13.7087 19.0738 13.4945 19.0601 13.2806V10.2906C19.0647 10.0897 19.026 9.89017 18.9466 9.70553C18.8673 9.5209 18.7491 9.35552 18.6001 9.22064ZM17.8601 13.3406C17.8649 13.4058 17.8547 13.4711 17.8305 13.5318C17.8062 13.5924 17.7685 13.6467 17.7201 13.6906C17.6727 13.74 17.6149 13.7782 17.5509 13.8024C17.4869 13.8266 17.4183 13.8363 17.3501 13.8306C17.2834 13.8362 17.2163 13.8265 17.1539 13.8022C17.0915 13.778 17.0355 13.7398 16.9901 13.6906C16.9461 13.6439 16.912 13.5889 16.8897 13.5288C16.8673 13.4687 16.8573 13.4047 16.8601 13.3406V10.2106C16.8577 10.1531 16.8692 10.0958 16.8935 10.0436C16.9179 9.99139 16.9544 9.9458 17.0001 9.91064C17.0981 9.83003 17.2236 9.7906 17.3501 9.80064C17.4825 9.7923 17.6137 9.83128 17.7201 9.91064C17.767 9.94457 17.8046 9.98994 17.8291 10.0425C17.8536 10.095 17.8642 10.1528 17.8601 10.2106V13.3406ZM14.2301 6.91064L13.4101 10.0106H13.3201L12.4701 6.91064H11.1401L12.7101 11.6006V14.6706H14.0001V11.4506L15.5201 6.91064H14.2301ZM23.3701 20.5806C23.45 20.72 23.4849 20.8806 23.4701 21.0406V21.5706H22.5701V21.0406C22.5501 20.8804 22.5854 20.7181 22.6701 20.5806C22.7135 20.5284 22.7689 20.4874 22.8316 20.4613C22.8943 20.4352 22.9624 20.4246 23.0301 20.4306C23.0946 20.4271 23.159 20.4388 23.218 20.4649C23.2771 20.491 23.3292 20.5306 23.3701 20.5806ZM19.7601 20.5806C19.723 20.532 19.6742 20.4937 19.6182 20.4692C19.5622 20.4447 19.5009 20.4349 19.4401 20.4406C19.3674 20.4263 19.2927 20.4263 19.2201 20.4406C19.1398 20.4877 19.0659 20.5448 19.0001 20.6106V23.8506C19.0706 23.9266 19.1556 23.9878 19.2501 24.0306C19.3282 24.0682 19.4134 24.0886 19.5001 24.0906C19.5533 24.0986 19.6077 24.0915 19.6571 24.0703C19.7065 24.0492 19.7491 24.0146 19.7801 23.9706C19.8562 23.8707 19.8919 23.7457 19.8801 23.6206V20.9506C19.8916 20.81 19.8486 20.6704 19.7601 20.5606V20.5806ZM19.7601 20.5806C19.723 20.532 19.6742 20.4937 19.6182 20.4692C19.5622 20.4447 19.5009 20.4349 19.4401 20.4406C19.3674 20.4263 19.2927 20.4263 19.2201 20.4406C19.1398 20.4877 19.0659 20.5448 19.0001 20.6106V23.8506C19.0706 23.9266 19.1556 23.9878 19.2501 24.0306C19.3282 24.0682 19.4134 24.0886 19.5001 24.0906C19.5533 24.0986 19.6077 24.0915 19.6571 24.0703C19.7065 24.0492 19.7491 24.0146 19.7801 23.9706C19.8562 23.8707 19.8919 23.7457 19.8801 23.6206V20.9506C19.8916 20.81 19.8486 20.6704 19.7601 20.5606V20.5806ZM25.6601 16.5806H9.3601C8.50225 16.5858 7.68055 16.9268 7.07115 17.5306C6.46175 18.1343 6.11316 18.9529 6.1001 19.8106V23.1406C6.10273 24.0044 6.44704 24.8321 7.05784 25.4429C7.66864 26.0537 8.4963 26.398 9.3601 26.4006H25.6601C26.5221 26.3954 27.3472 26.0499 27.9559 25.4394C28.5645 24.8289 28.9075 24.0027 28.9101 23.1406V19.8106C28.9075 18.9476 28.5649 18.1204 27.9565 17.5083C27.3481 16.8962 26.523 16.5485 25.6601 16.5406V16.5806ZM13.7501 18.8306H12.5301V24.8306H11.3601V18.8306H10.1501V17.8306H13.7501V18.8306ZM17.1701 24.8306H16.1701V24.2506C16.0055 24.4504 15.8011 24.6139 15.5701 24.7306C15.3897 24.8431 15.1826 24.9053 14.9701 24.9106C14.866 24.9169 14.7618 24.8985 14.6662 24.8567C14.5706 24.815 14.4863 24.7512 14.4201 24.6706C14.2886 24.4658 14.2288 24.2231 14.2501 23.9806V19.6506H15.2501V23.6506C15.2409 23.7429 15.2658 23.8354 15.3201 23.9106C15.3459 23.9401 15.3785 23.9628 15.4151 23.9767C15.4517 23.9907 15.4912 23.9954 15.5301 23.9906C15.6355 23.9837 15.7365 23.9454 15.8201 23.8806C15.9446 23.8099 16.0534 23.7146 16.1401 23.6006V19.6506H17.1401L17.1701 24.8306ZM20.9401 23.7506C20.9584 24.0529 20.8738 24.3526 20.7001 24.6006C20.6113 24.6994 20.5013 24.7768 20.3783 24.827C20.2554 24.8773 20.1226 24.899 19.9901 24.8906C19.8039 24.8979 19.6186 24.8601 19.4501 24.7806C19.2759 24.6944 19.1224 24.5716 19.0001 24.4206V24.8306H18.0001V17.8306H19.0001V20.0906C19.1281 19.9481 19.2805 19.8296 19.4501 19.7406C19.5978 19.6605 19.7621 19.616 19.9301 19.6106C20.072 19.6047 20.2134 19.6314 20.3434 19.6886C20.4734 19.7458 20.5886 19.832 20.6801 19.9406C20.8778 20.2347 20.9695 20.5874 20.9401 20.9406V23.7506ZM24.5601 22.3506H22.5601V23.3506C22.5402 23.5452 22.5712 23.7416 22.6501 23.9206C22.681 23.9872 22.7304 24.0433 22.7925 24.0824C22.8546 24.1214 22.9267 24.1416 23.0001 24.1406C23.0669 24.1478 23.1345 24.1388 23.1971 24.1145C23.2598 24.0901 23.3156 24.0511 23.3601 24.0006C23.4483 23.8173 23.483 23.6128 23.4601 23.4106V23.1406H24.5501V23.4006C24.5679 23.6196 24.5407 23.8399 24.4702 24.048C24.3997 24.2561 24.2874 24.4476 24.1401 24.6106C23.9866 24.7564 23.8036 24.8675 23.6035 24.9365C23.4034 25.0055 23.1908 25.0308 22.9801 25.0106C22.7772 25.0247 22.5737 24.9944 22.3838 24.9219C22.1938 24.8494 22.0219 24.7363 21.8801 24.5906C21.5961 24.2616 21.4525 23.8344 21.4801 23.4006V21.0506C21.4706 20.8465 21.5049 20.6427 21.5808 20.4529C21.6567 20.2632 21.7724 20.0919 21.9201 19.9506C22.0722 19.8071 22.2513 19.6951 22.447 19.6213C22.6427 19.5475 22.8511 19.5133 23.0601 19.5206C23.2595 19.5092 23.4591 19.5388 23.6465 19.6076C23.834 19.6764 24.0054 19.7829 24.1501 19.9206C24.288 20.0733 24.3943 20.2517 24.4629 20.4457C24.5316 20.6396 24.5612 20.8452 24.5501 21.0506L24.5601 22.3506ZM19.4401 20.3506C19.3674 20.3363 19.2927 20.3363 19.2201 20.3506C19.1398 20.3977 19.0659 20.4548 19.0001 20.5206V23.7606C19.0706 23.8366 19.1556 23.8978 19.2501 23.9406C19.3282 23.9782 19.4134 23.9986 19.5001 24.0006C19.5533 24.0086 19.6077 24.0015 19.6571 23.9803C19.7065 23.9592 19.7491 23.9246 19.7801 23.8806C19.8562 23.7807 19.8919 23.6557 19.8801 23.5306V20.9506C19.8916 20.81 19.8486 20.6704 19.7601 20.5606C19.723 20.512 19.6742 20.4737 19.6182 20.4492C19.5622 20.4247 19.5009 20.4149 19.4401 20.4206V20.3506ZM19.7601 20.4906C19.723 20.442 19.6742 20.4037 19.6182 20.3792C19.5622 20.3547 19.5009 20.3449 19.4401 20.3506C19.3674 20.3363 19.2927 20.3363 19.2201 20.3506C19.1398 20.3977 19.0659 20.4548 19.0001 20.5206V23.7606C19.0706 23.8366 19.1556 23.8978 19.2501 23.9406C19.3282 23.9782 19.4134 23.9986 19.5001 24.0006C19.5533 24.0086 19.6077 24.0015 19.6571 23.9803C19.7065 23.9592 19.7491 23.9246 19.7801 23.8806C19.8562 23.7807 19.8919 23.6557 19.8801 23.5306V20.9506C19.8916 20.81 19.8486 20.6704 19.7601 20.5606V20.4906ZM19.7601 20.4906C19.723 20.442 19.6742 20.4037 19.6182 20.3792C19.5622 20.3547 19.5009 20.3449 19.4401 20.3506C19.3674 20.3363 19.2927 20.3363 19.2201 20.3506C19.1398 20.3977 19.0659 20.4548 19.0001 20.5206V23.7606C19.0706 23.8366 19.1556 23.8978 19.2501 23.9406C19.3282 23.9782 19.4134 23.9986 19.5001 24.0006C19.5533 24.0086 19.6077 24.0015 19.6571 23.9803C19.7065 23.9592 19.7491 23.9246 19.7801 23.8806C19.8562 23.7807 19.8919 23.6557 19.8801 23.5306V20.9506C19.8916 20.81 19.8486 20.6704 19.7601 20.5606V20.4906Z" fill="#0E5C63"/>
</g>
<defs>
<clipPath id="clip0_1_463">
<rect width="36" height="36" fill="white" transform="translate(0 0.140625)"/>
</clipPath>
</defs>
</svg>
